# xmcd CD database file
#
# Track frame offsets:
#	150
#	25964
#	45470
#	59239
#	72729
#	88841
#	111809
#	127268
#	143162
#	160252
#	172975
#	189004
#	211848
#	228855
#	247720
#
# Disc length: 3361 seconds
#
# Revision: 0
# Processed by: cddbd v1.4PL0 Copyright (c) Steve Scherf et al.
# Submitted via: CDex 1.50
#
DISCID=d00d1f0f
DTITLE=Norah Jones - Live in New Orleans
DYEAR=1900
DGENRE=Jazz
TTITLE0=Cold, Cold Heart.wav
TTITLE1=Nightingale
TTITLE2=One Flight Down
TTITLE3=Seven Years
TTITLE4=Feelin' The Same Way
TTITLE5=Comes Love
TTITLE6=Something Is Calling You
TTITLE7=Come Away With Me
TTITLE8=What Am I To You
TTITLE9=Painter Song
TTITLE10=Lonestar
TTITLE11=I've Got To See You Again
TTITLE12=Bessie Smith
TTITLE13=Don't Know Why
TTITLE14=Tennessee Waltz
EXTD=
EXTT0=
EXTT1=
EXTT2=
EXTT3=
EXTT4=
EXTT5=
EXTT6=
EXTT7=
EXTT8=
EXTT9=
EXTT10=
EXTT11=
EXTT12=
EXTT13=
EXTT14=
PLAYORDER=
